<?xml version="1.0" encoding="utf-8"?>
<svg version="1.1" id="Layer_1" xmlns="http://www.w3.org/2000/svg" xmlns:xlink="http://www.w3.org/1999/xlink" x="0px" y="0px"
	 viewBox="0 0 500 500" style="enable-background:new 0 0 500 500;" color="inherit" xml:space="preserve">
<g id="XMLID_1_">
	<path id="XMLID_3_" d="M81.9,266.6c-11.5-8.2-14.4-19-14.4-28c0-6.3,2.8-17.3,13.3-25.7c7.1-5.7,17.9-10.1,36-10.1
		c4.7,0,11.4,0.3,17.2,1.1c4.4,0.7,8.2,1.3,12.1,1.4c1.2,0,1.5,0.4,1.5,1c0,0.8-0.3,1.9-0.5,5.3c-0.1,3.1-0.1,8.3-0.3,9.7
		c-0.1,1.4-0.7,2-1.3,2c-0.8,0-0.9-0.7-0.9-2c0-3.7-1.9-7.4-5-9.4c-4.2-2.9-12.8-5.2-23.2-5.2c-15.2,0-22.4,3.3-26.6,6.5
		c-8.7,6.7-10.6,15.1-10.6,24.6c0,18.1,17.3,34.2,42.6,34.2c8.9,0,14.8-0.6,19.5-4.4c2.6-2.1,4.2-6.1,4.6-7.9c0.3-1,0.4-1.3,1.2-1.3
		c0.5,0,1.1,0.7,1.1,1.3c0,0.7-1.6,8.9-2.8,12.1c-0.7,1.8-0.9,2.1-3,2.8c-4.8,1.6-13.7,2.1-21.4,2.1
		C103.1,276.7,91.1,273.3,81.9,266.6z"/>
	<path id="XMLID_6_" d="M190.6,206.6c1.5-3.1,2-3.6,2.8-3.6c1.2,0,1.6,1.3,2.8,3.4c2.1,4,20.8,42.7,28,57c4.2,8.4,7.4,9.6,10,10.3
		c1.7,0.4,3.5,0.6,4.6,0.6c0.7,0,1.5,0.2,1.5,0.8c0,0.6-1.3,0.8-2.7,0.8c-1.7,0-10.4,0-18.4-0.2c-2.3-0.1-4.1-0.1-4.1-0.7
		c0-0.4,0.3-0.4,0.8-0.7c0.7-0.2,1.9-1,1.1-2.5l-10.5-21.5c-0.3-0.4-0.4-0.6-1.1-0.6h-26.9c-0.5,0-0.9,0.2-1.2,0.8l-6.6,15
		c-1.1,2.3-1.7,4.6-1.7,6.3c0,1.9,2,2.5,4,2.5h1.1c0.9,0,1.2,0.3,1.2,0.8c0,0.6-0.7,0.8-1.7,0.8c-2.8,0-9.2-0.3-10.5-0.3
		c-1.2,0-7,0.3-11.8,0.3c-1.5,0-2.3-0.2-2.3-0.8c0-0.4,0.5-0.8,1.1-0.8c0.8,0,2.5-0.1,3.5-0.2c5.3-0.6,7.6-3.9,9.8-8.6L190.6,206.6z
		 M203.6,245.6c0.5,0,0.5-0.2,0.4-0.7l-11.5-25.7c-0.7-1.4-1.3-1.4-2,0L179.6,245c-0.1,0.4,0,0.7,0.4,0.7L203.6,245.6L203.6,245.6z"
		/>
	<path id="XMLID_10_" d="M250.9,231.6c0-14.6,0-17.3-0.3-20.3c-0.3-3.2-0.9-5-4.8-5.4c-0.9-0.1-2.9-0.2-4-0.2
		c-0.4,0-0.9-0.2-0.9-0.6c0-0.6,0.5-0.8,1.9-0.8c5.3,0,12.9,0.2,13.5,0.2c2.8,0,8.2-0.2,13.7-0.2c19.5,0,24.6,9.4,24.6,14.4
		c0,7.4-5.8,12.1-11.8,16.5c8.9,2.2,20.6,9,20.6,19.6c0,10.5-9.4,21-29.3,21c-2.1,0-6.4-0.1-10.1-0.3c-3.7-0.1-7-0.2-7.6-0.2
		c-0.3,0-2.4,0.1-4.8,0.1c-2.4,0.1-5.2,0.2-7,0.2c-1.2,0-1.9-0.2-1.9-0.8c0-0.3,0.3-0.6,0.9-0.6c1.1,0,2.5-0.3,3.6-0.4
		c2.3-0.3,2.5-2.4,3.1-5.2c0.7-3.9,0.7-11.3,0.7-20.4L250.9,231.6L250.9,231.6z M261,233.6c0,0.7,0.3,0.9,0.8,1
		c0.7,0.1,2.8,0.4,7.2,0.4c6.5,0,9-0.2,11.4-2.4c2.5-2.3,4.5-5.5,4.5-10.1c0-7.2-4.8-15.2-16.5-15.2c-1.3,0-4.1,0.1-6,0.4
		c-1.1,0.2-1.5,0.4-1.5,1V233.6L261,233.6z M261,244c0,7.3,0,18.6,0.1,20.1c0.4,4.5,0.4,5.7,4,7.1c3.2,1.2,8.1,1.3,10.2,1.3
		c7.7,0,17.1-2.4,17.1-14.5c0-4.2-2-12.3-11.1-17.2c-4-2.1-7.7-2-10.5-2.4c-1.5-0.2-7.3-0.2-9.2-0.2c-0.4,0-0.7,0.2-0.7,0.7V244z"/>
	<path id="XMLID_11_" d="M323.9,248.3c0,9.1,0,16.5,0.5,20.4c0.4,2.8,0.8,4.5,4.2,5c1.7,0.2,4.2,0.4,5.3,0.4c0.7,0,0.9,0.4,0.9,0.8
		c0,0.4-0.5,0.8-1.9,0.8c-6.5,0-14.1-0.3-14.6-0.3c-0.7,0-8,0.3-11.5,0.3c-1.2,0-1.9-0.2-1.9-0.8c0-0.3,0.3-0.8,0.9-0.8
		c1.1,0,2.5-0.2,3.6-0.4c2.3-0.4,2.7-2.2,3.1-5c0.5-3.9,0.7-11.3,0.7-20.4v-16.6c0-14.6,0-17.3-0.3-20.3c-0.3-3.2-1.2-4.7-3.7-5.1
		c-1.3-0.2-2.8-0.3-3.6-0.3c-0.5,0-0.9-0.4-0.9-0.8c0-0.6,0.5-0.8,1.9-0.8c3.8,0,11.1,0.2,11.8,0.2c0.5,0,8.1-0.2,11.7-0.2
		c1.3,0,1.9,0.2,1.9,0.8c0,0.3-0.5,0.8-0.9,0.8c-0.8,0-1.6,0-2.9,0.2c-3.2,0.6-3.8,1.9-4.1,5.2c-0.1,3-0.1,5.7-0.1,20.3L323.9,248.3
		L323.9,248.3z"/>
	<path id="XMLID_12_" d="M354.9,262.8c0.3,7.8,1.3,10.1,4.5,10.8c2.1,0.4,4.8,0.6,5.8,0.6c0.5,0,0.9,0.3,0.9,0.8
		c0,0.6-0.8,0.8-2.1,0.8c-6.6,0-11.3-0.3-12.3-0.3c-1.1,0-6,0.3-11.3,0.3c-1.2,0-1.9-0.1-1.9-0.8c0-0.4,0.4-0.8,0.9-0.8
		c0.9,0,3.1-0.1,4.8-0.6c2.9-0.7,3.3-3.2,3.3-11.8v-54c0-3.8,0.7-4.8,1.6-4.8c1.3,0,3.3,1.9,4.5,2.9c1.9,1.6,18.8,16.6,36.9,32.2
		c11.5,10,24,21.2,27.6,24.3l-1.2-47.3c-0.1-6.1-0.8-8.2-4.4-8.8c-2.1-0.3-4.8-0.4-5.7-0.4c-0.8,0-0.9-0.6-0.9-0.9
		c0-0.6,0.9-0.7,2.3-0.7c5.3,0,10.9,0.2,12.2,0.2c1.3,0,5.2-0.2,10-0.2c1.2,0,2.1,0.1,2.1,0.7c0,0.3-0.5,0.9-1.3,0.9
		c-0.5,0-1.5,0-2.8,0.2c-3.8,0.7-4.1,2.6-4.1,8.2l-0.3,55.3c0,6.2-0.1,6.8-0.9,6.8c-1.2,0-2.4-0.8-8.9-5.8
		c-1.2-0.9-18-14.8-30.4-25.5c-13.5-11.9-26.7-23.4-30.3-26.7L354.9,262.8z"/>
	<path id="XMLID_13_" d="M194.7,315.1h0.3c1.7-4.5,8-20.1,10.5-27.1c0.7-2,0.8-2.7,0.8-3.4c0-1-0.6-1.6-3.7-1.6
		c-0.4,0-0.6-0.3-0.6-0.5c0-0.3,0.3-0.4,1.2-0.4c3.6,0,6.5,0.1,7.1,0.1c0.5,0,3.5-0.1,5.6-0.1c0.6,0,1,0.1,1,0.3
		c0,0.3-0.2,0.6-0.6,0.6c-0.2,0-1.6,0.1-2.4,0.3c-2.1,0.6-3.2,2.7-4.5,5.7c-3.1,6.9-10,24.1-12.8,30.1c-1.8,4-2.2,4.6-3,4.6
		c-0.7,0-1.3-0.7-2.3-2.8l-13.6-29.6c-2.4,4.7-11.8,24.5-14.3,29.5c-1.2,2.3-1.7,2.9-2.5,2.9c-0.7,0-1.3-0.6-2.7-4.3l-12.4-32.1
		c-1.1-2.9-1.8-3.6-3.6-4.1c-1-0.3-2.7-0.3-3.2-0.3c-0.3,0-0.6-0.2-0.6-0.5c0-0.3,0.5-0.4,1.1-0.4c3.6,0,7.5,0.1,8.2,0.1
		c0.6,0,3.8-0.1,7.3-0.1c1,0,1.3,0.1,1.3,0.4c0,0.3-0.4,0.5-0.7,0.5c-0.6,0-1.7,0-2.5,0.3c-0.5,0.1-1,0.4-1,1.1c0,0.7,0.6,2.6,1.3,5
		c1.1,3.4,8.2,23.3,9.1,25.5h0.2l14.6-30.2c1-2.2,1.5-2.5,1.9-2.5c0.5,0,1,0.7,1.9,2.5L194.7,315.1z"/>
	<path id="XMLID_16_" d="M236,281.5c15.7,0,27.6,7.7,27.6,20.3c0,12.1-11.2,22.1-28,22.1c-19.1,0-27.3-11.5-27.3-21.3
		C208.4,293.9,216.8,281.5,236,281.5z M237.6,321.6c6.3,0,18.9-2.7,18.9-18.3c0-13-9.8-19.8-20.8-19.8c-11.6,0-20,5.9-20,17.6
		C215.6,313.7,225,321.6,237.6,321.6z"/>
	<path id="XMLID_19_" d="M293.7,281.5c15.7,0,27.6,7.7,27.6,20.3c0,12.1-11.2,22.1-28,22.1c-19.1,0-27.3-11.5-27.3-21.3
		C266.1,293.9,274.5,281.5,293.7,281.5z M295.3,321.6c6.3,0,18.9-2.7,18.9-18.3c0-13-9.8-19.8-20.8-19.8c-11.6,0-20,5.9-20,17.6
		C273.3,313.7,282.7,321.6,295.3,321.6z"/>
	<path id="XMLID_22_" d="M324.8,297.9c0-8.4,0-9.9-0.2-11.7c-0.2-1.8-0.6-2.7-2.9-3c-0.6-0.1-1.7-0.1-2.4-0.1
		c-0.2,0-0.6-0.3-0.6-0.4c0-0.3,0.3-0.4,1.1-0.4c3.2,0,7.7,0.1,8.1,0.1c0.8,0,5.2-0.1,9.4-0.1c7,0,19.7-0.5,28,6.2
		c3.5,2.8,6.8,7.3,6.8,13.8c0,6.8-3.6,12-7.5,15.2c-3,2.5-9.3,6.2-21.2,6.2c-3,0-6.7-0.2-9.7-0.3c-3-0.2-5.4-0.3-5.7-0.3
		c-0.2,0-1.4,0.1-2.9,0.1c-1.4,0.1-3.1,0.1-4.2,0.1c-0.7,0-1.1-0.1-1.1-0.4c0-0.2,0.2-0.4,0.6-0.4c0.6,0,1.5-0.1,2.1-0.3
		c1.3-0.3,1.5-1.3,1.8-2.9c0.4-2.2,0.4-6.5,0.4-11.7L324.8,297.9L324.8,297.9z M331.1,303.8c0,5.7,0,10.8,0.1,11.8
		c0.1,1.3,0.2,3.3,0.8,3.9c0.9,1,3.3,2.2,11.6,2.2c6.4,0,12.1-1.7,16.3-4.9c3.6-2.7,5.5-7.9,5.5-12.9c0-6.9-3.7-11.3-6.6-13.6
		c-6.6-5.3-14.3-6-22.6-6c-1.3,0-3.6,0.2-4.2,0.4c-0.6,0.2-0.9,0.4-0.9,1.1L331.1,303.8L331.1,303.8z"/>
	<path id="XMLID_23_" d="M374,322.4c-0.9-0.4-1-0.6-1-2c0-2.7,0.3-4.8,0.4-5.7c0-0.6,0.1-0.9,0.5-0.9c0.4,0,0.6,0.2,0.6,0.6
		c0,0.4,0,1.2,0.2,2c1,3.9,5.9,5.3,10.2,5.3c6.4,0,9.7-3.1,9.7-7.2c0-3.9-2.4-5.7-8.2-9.4l-2.9-1.9c-7-4.5-9.3-7.8-9.3-11.6
		c0-6.4,5.8-10.2,14.4-10.2c2.6,0,5.2,0.3,6.7,0.6c1.3,0.3,1.8,0.3,2.3,0.3c0.5,0,0.7,0.1,0.7,0.4c0,0.3-0.3,2-0.3,5.7
		c0,0.8-0.1,1.2-0.5,1.2s-0.5-0.3-0.6-0.7c-0.1-0.6-0.6-2.1-1-2.7c-0.4-0.6-2.6-2.7-8.4-2.7c-4.7,0-8.6,2-8.6,5.9
		c0,3.4,2,5.4,8.4,9.2l1.8,1.1c7.9,4.6,10.6,8.4,10.6,13.1c0,3.2-1.4,6.6-6,9.2c-2.7,1.5-6.8,1.9-10.3,1.9
		C380.4,323.9,376.7,323.5,374,322.4z"/>
	<path id="XMLID_24_" d="M221.7,190.5c0,2.9,0,5.2,0.2,6.5c0.1,0.9,0.3,1.4,1.4,1.6c0.5,0.1,1.3,0.1,1.7,0.1c0.2,0,0.3,0.1,0.3,0.2
		c0,0.1-0.2,0.2-0.6,0.2c-2,0-4.3-0.1-4.5-0.1c-0.2,0-2.7,0.1-3.8,0.1c-0.4,0-0.6-0.1-0.6-0.2c0-0.1,0.1-0.2,0.3-0.2
		c0.3,0,0.8-0.1,1.1-0.1c0.7-0.1,1-0.7,1.1-1.6c0.2-1.2,0.2-3.6,0.2-6.5v-12.6l-5.3,0.1c-2.3,0-3.2,0.2-3.7,1
		c-0.4,0.5-0.5,0.7-0.6,1c-0.1,0.2-0.2,0.3-0.4,0.3c-0.1,0-0.2-0.1-0.2-0.2c0-0.3,0.8-3,0.8-3.2c0.1-0.2,0.2-0.6,0.4-0.6
		c0.2,0,0.6,0.2,1.6,0.4c1,0.1,2.5,0.1,2.9,0.1h13.8c1.2,0,2-0.1,2.6-0.1c0.5-0.1,0.9-0.1,1-0.1s0.2,0.2,0.2,0.4
		c0,0.9-0.1,3.1-0.1,3.4c0,0.2-0.2,0.4-0.3,0.4c-0.2,0-0.2-0.1-0.3-0.5l0-0.3c-0.1-0.9-0.9-1.6-4.4-1.7l-4.6-0.1L221.7,190.5
		L221.7,190.5z"/>
	<path id="XMLID_25_" d="M259.1,190.5c0,2.9,0,5.2,0.2,6.5c0.1,0.9,0.2,1.4,1.3,1.6c0.5,0.1,1.3,0.1,1.6,0.1c0.2,0,0.3,0.1,0.3,0.2
		c0,0.1-0.2,0.2-0.6,0.2c-2,0-4.3-0.1-4.5-0.1c-0.2,0-2.5,0.1-3.6,0.1c-0.4,0-0.6-0.1-0.6-0.2c0-0.1,0.1-0.2,0.3-0.2
		c0.3,0,0.7-0.1,1.1-0.1c0.8-0.1,0.9-0.7,1-1.6c0.2-1.2,0.2-3.5,0.2-6.4v-3c0-0.1-0.1-0.2-0.2-0.2h-15.3c-0.1,0-0.2,0-0.2,0.2v3
		c0,2.9,0,5.2,0.2,6.4c0.1,0.9,0.2,1.4,1.3,1.6c0.5,0.1,1.3,0.1,1.7,0.1c0.2,0,0.3,0.1,0.3,0.2c0,0.1-0.2,0.2-0.6,0.2
		c-2,0-4.4-0.1-4.5-0.1c-0.2,0-2.5,0.1-3.7,0.1c-0.4,0-0.6-0.1-0.6-0.2c0-0.1,0.1-0.2,0.3-0.2c0.3,0,0.8-0.1,1.1-0.1
		c0.7-0.1,0.8-0.7,1-1.6c0.2-1.2,0.2-3.6,0.2-6.5v-5.3c0-4.6,0-5.5-0.1-6.4c-0.1-1-0.3-1.5-1.5-1.7c-0.3,0-0.9-0.1-1.3-0.1
		c-0.1,0-0.3-0.1-0.3-0.2c0-0.2,0.2-0.2,0.6-0.2c1.7,0,4,0.1,4.2,0.1c0.2,0,2.5-0.1,3.6-0.1c0.4,0,0.6,0.1,0.6,0.2
		c0,0.1-0.2,0.2-0.3,0.2c-0.2,0-0.5,0-0.9,0.1c-1,0.2-1.2,0.6-1.3,1.7c0,1,0,1.9,0,6.5v0.6c0,0.2,0.1,0.2,0.2,0.2h15.3
		c0.1,0,0.2,0,0.2-0.2v-0.6c0-4.6,0-5.6-0.1-6.5c-0.1-1-0.2-1.5-1.5-1.7c-0.3,0-0.9-0.1-1.3-0.1c-0.2,0-0.3-0.1-0.3-0.2
		c0-0.2,0.2-0.2,0.6-0.2c1.6,0,4,0.1,4.2,0.1c0.2,0,2.5-0.1,3.6-0.1c0.4,0,0.6,0.1,0.6,0.2c0,0.1-0.2,0.2-0.3,0.2
		c-0.2,0-0.5,0-0.9,0.1c-1,0.2-1.2,0.6-1.3,1.7c-0.1,1-0.1,1.8-0.1,6.4V190.5z"/>
	<path id="XMLID_26_" d="M268.2,185.2c0-4.6,0-5.5-0.1-6.4c-0.1-1-0.3-1.5-1.5-1.7c-0.3,0-0.9-0.1-1.3-0.1c-0.1,0-0.3-0.1-0.3-0.2
		c0-0.2,0.2-0.2,0.6-0.2c1.7,0,4,0.1,4.3,0.1c0.2,0,7.9,0,8.8,0c0.7,0,1.4-0.1,1.7-0.2c0.2,0,0.3-0.1,0.5-0.1c0.1,0,0.2,0.1,0.2,0.3
		c0,0.2-0.2,0.6-0.3,1.4c0,0.3-0.1,1.6-0.2,2c0,0.1-0.2,0.3-0.3,0.3c-0.2,0-0.3-0.1-0.3-0.4c0-0.2,0-0.7-0.2-1.1
		c-0.2-0.5-0.6-0.7-2.6-0.9c-0.6-0.1-4.9-0.1-5.3-0.1c-0.2,0-0.2,0.1-0.2,0.3v8.1c0,0.2,0,0.3,0.2,0.3c0.5,0,5.3,0,6.1-0.1
		c0.9-0.1,1.4-0.1,1.8-0.4c0.2-0.2,0.4-0.4,0.5-0.4c0.1,0,0.2,0.1,0.2,0.2c0,0.2-0.2,0.7-0.3,1.7c-0.1,0.6-0.2,1.7-0.2,1.9
		c0,0.2-0.1,0.6-0.3,0.6c-0.2,0-0.2-0.1-0.2-0.3c0-0.3,0-0.6-0.2-1c-0.1-0.4-0.5-0.8-1.9-0.9c-1-0.1-4.9-0.1-5.5-0.1
		c-0.2,0-0.2,0.1-0.2,0.2v2.5c0,1,0,4.5,0,5.1c0.1,2,0.7,2.4,4.4,2.4c1,0,2.7,0,3.7-0.3c1-0.4,1.5-0.9,1.7-2.1
		c0.1-0.4,0.2-0.5,0.4-0.5c0.2,0,0.2,0.2,0.2,0.5s-0.3,2.3-0.5,2.9c-0.2,0.8-0.6,0.8-2,0.8c-2.8,0-4.9-0.1-6.4-0.1
		c-1.5-0.1-2.5-0.1-3-0.1c-0.1,0-0.8,0-1.6,0c-0.7,0-1.5,0.1-2.1,0.1c-0.4,0-0.6-0.1-0.6-0.2c0-0.1,0.1-0.2,0.3-0.2
		c0.3,0,0.8-0.1,1.1-0.1c0.7-0.1,0.8-0.7,1-1.6c0.2-1.2,0.2-3.6,0.2-6.5L268.2,185.2L268.2,185.2z"/>
	<path id="XMLID_27_" d="M104.9,314.5c0,1.9,0,3.5,0.1,4.4c0.1,0.6,0.2,1,0.9,1.1c0.3,0,0.9,0.1,1.1,0.1c0.2,0,0.2,0.1,0.2,0.2
		c0,0.1-0.1,0.2-0.4,0.2c-1.3,0-2.9-0.1-3-0.1c-0.1,0-1.8,0.1-2.5,0.1c-0.3,0-0.4,0-0.4-0.2c0-0.1,0.1-0.1,0.2-0.1
		c0.2,0,0.5,0,0.7-0.1c0.5-0.1,0.6-0.5,0.7-1.1c0.1-0.8,0.1-2.4,0.1-4.4V306l-3.5,0c-1.5,0-2.1,0.2-2.5,0.6
		c-0.3,0.4-0.3,0.5-0.4,0.6c-0.1,0.2-0.1,0.2-0.2,0.2c-0.1,0-0.2,0-0.2-0.2c0-0.2,0.5-2,0.5-2.2c0.1-0.1,0.2-0.4,0.2-0.4
		c0.2,0,0.4,0.2,1.1,0.2c0.7,0.1,1.6,0.1,1.9,0.1h9.2c0.8,0,1.4,0,1.7-0.1c0.4,0,0.6-0.1,0.7-0.1c0.1,0,0.1,0.1,0.1,0.2
		c0,0.6-0.1,2.1-0.1,2.3c0,0.2-0.1,0.3-0.2,0.3c-0.1,0-0.2-0.1-0.2-0.4l0-0.2c-0.1-0.6-0.6-1.1-2.9-1.1l-3,0L104.9,314.5
		L104.9,314.5z"/>
	<path id="XMLID_28_" d="M129.7,314.5c0,1.9,0,3.5,0.1,4.4c0.1,0.6,0.1,1,0.9,1.1c0.3,0,0.9,0.1,1.1,0.1c0.2,0,0.2,0.1,0.2,0.2
		c0,0.1-0.1,0.2-0.4,0.2c-1.3,0-2.9-0.1-3-0.1c-0.1,0-1.7,0.1-2.4,0.1c-0.3,0-0.4,0-0.4-0.2c0-0.1,0.1-0.2,0.2-0.2
		c0.2,0,0.5,0,0.7-0.1c0.5-0.1,0.6-0.5,0.7-1.1c0.1-0.8,0.1-2.4,0.1-4.3v-2l-0.1-0.1h-10.1l-0.1,0.1v2c0,1.9,0,3.5,0.1,4.3
		c0.1,0.6,0.2,1,0.9,1.1c0.4,0,0.9,0.1,1.1,0.1c0.1,0,0.2,0.1,0.2,0.2c0,0.1-0.1,0.2-0.4,0.2c-1.4,0-2.9-0.1-3-0.1
		c-0.1,0-1.7,0.1-2.4,0.1c-0.2,0-0.4,0-0.4-0.2c0-0.1,0.1-0.2,0.2-0.2c0.2,0,0.5,0,0.7-0.1c0.5-0.1,0.5-0.5,0.6-1.1
		c0.1-0.8,0.1-2.4,0.1-4.4v-3.6c0-3.1,0-3.7-0.1-4.3c-0.1-0.7-0.2-1-1-1.1c-0.2,0-0.6,0-0.8,0l-0.2-0.2c0-0.1,0.1-0.2,0.4-0.2
		c1.1,0,2.7,0,2.8,0c0.1,0,1.7,0,2.4,0c0.3,0,0.4,0,0.4,0.2l-0.2,0.2c-0.2,0-0.3,0-0.6,0c-0.7,0.1-0.8,0.4-0.9,1.1
		c0,0.6,0,1.3,0,4.4v0.4c0,0.1,0.1,0.1,0.1,0.1h10.1c0.1,0,0.1,0,0.1-0.1v-0.4c0-3.1,0-3.8-0.1-4.4c-0.1-0.7-0.2-1-1-1.1
		c-0.2,0-0.6,0-0.8,0c-0.1,0-0.2-0.1-0.2-0.2c0-0.1,0.1-0.2,0.4-0.2c1.1,0,2.7,0,2.8,0c0.1,0,1.7,0,2.4,0c0.3,0,0.4,0,0.4,0.2
		c0,0.1-0.1,0.2-0.2,0.2c-0.2,0-0.3,0-0.6,0c-0.6,0.1-0.8,0.4-0.8,1.1c-0.1,0.6-0.1,1.2-0.1,4.3L129.7,314.5L129.7,314.5z"/>
	<path id="XMLID_29_" d="M135.7,310.9c0-3.1,0-3.7-0.1-4.3c-0.1-0.7-0.2-1-1-1.1c-0.2,0-0.6,0-0.8,0l-0.2-0.2c0-0.1,0.1-0.2,0.4-0.2
		c1.1,0,2.7,0,2.8,0c0.2,0,5.2,0,5.8,0c0.5,0,0.9-0.1,1.1-0.1c0.1,0,0.2-0.1,0.3-0.1l0.1,0.2c0,0.1-0.1,0.4-0.2,1
		c0,0.2-0.1,1.1-0.1,1.3c0,0.1-0.1,0.2-0.2,0.2c-0.1,0-0.2-0.1-0.2-0.3c0-0.1,0-0.5-0.1-0.7c-0.2-0.3-0.4-0.5-1.7-0.6
		c-0.4,0-3.2-0.1-3.5-0.1c-0.1,0-0.1,0.1-0.1,0.2v5.5c0,0.1,0,0.2,0.1,0.2c0.3,0,3.5,0,4.1,0c0.6,0,0.9-0.1,1.2-0.3
		c0.2-0.1,0.3-0.3,0.4-0.3c0.1,0,0.1,0,0.1,0.2c0,0.1-0.1,0.5-0.2,1.1c-0.1,0.4-0.1,1.2-0.1,1.3c0,0.2-0.1,0.4-0.2,0.4
		c-0.1,0-0.2-0.1-0.2-0.2c0-0.2,0-0.4-0.1-0.7c-0.1-0.3-0.3-0.5-1.2-0.6c-0.7-0.1-3.3-0.1-3.7-0.1c-0.1,0-0.2,0.1-0.2,0.1v1.7
		c0,0.7,0,3,0,3.4c0.1,1.4,0.5,1.6,2.9,1.6c0.6,0,1.8,0,2.4-0.2c0.6-0.2,1-0.6,1.1-1.4c0.1-0.2,0.1-0.3,0.2-0.3
		c0.1,0,0.2,0.2,0.2,0.3c0,0.1-0.2,1.5-0.3,1.9c-0.2,0.5-0.4,0.5-1.4,0.5c-1.8,0-3.2,0-4.2-0.1c-1,0-1.7,0-2,0c-0.1,0-0.5,0-1,0
		c-0.5,0-1,0-1.4,0c-0.2,0-0.4,0-0.4-0.2c0-0.1,0.1-0.2,0.2-0.2c0.2,0,0.5-0.1,0.7-0.1c0.5-0.1,0.5-0.5,0.6-1.1
		c0.1-0.8,0.1-2.4,0.1-4.4L135.7,310.9L135.7,310.9z"/>
	<path id="XMLID_30_" d="M111.2,295.5c0,1.9,0,3.5,0.1,4.4c0.1,0.6,0.2,1,0.8,1.1c0.3,0,0.8,0.1,1,0.1c0.1,0,0.2,0.1,0.2,0.2
		c0,0.1-0.1,0.2-0.4,0.2c-1.3,0-2.7-0.1-2.8-0.1c-0.1,0-1.5,0.1-2.2,0.1c-0.2,0-0.4,0-0.4-0.2c0-0.1,0.1-0.2,0.2-0.2
		c0.2,0,0.5,0,0.7-0.1c0.4-0.1,0.5-0.5,0.6-1.1c0.1-0.8,0.1-2.4,0.1-4.4V292c0-3.1,0-3.7-0.1-4.3c-0.1-0.7-0.2-1-0.7-1.1
		c-0.3,0-0.5-0.1-0.7-0.1c-0.1,0-0.2-0.1-0.2-0.2c0-0.1,0.1-0.2,0.4-0.2c0.7,0,2.2,0,2.3,0c0.1,0,1.6,0,2.3,0c0.3,0,0.4,0,0.4,0.2
		l-0.2,0.2c-0.2,0-0.3,0-0.6,0c-0.6,0.1-0.7,0.4-0.8,1.1c0,0.6,0,1.2,0,4.3L111.2,295.5L111.2,295.5z"/>
	<path id="XMLID_31_" d="M119,298.6c0.1,1.7,0.3,2.2,0.9,2.3c0.4,0.1,1,0.1,1.2,0.1c0.1,0,0.2,0.1,0.2,0.2c0,0.1-0.2,0.2-0.4,0.2
		c-1.4,0-2.3-0.1-2.5-0.1c-0.2,0-1.2,0.1-2.3,0.1c-0.2,0-0.4,0-0.4-0.2c0-0.1,0.1-0.2,0.2-0.2c0.2,0,0.6,0,1-0.1
		c0.6-0.1,0.7-0.7,0.7-2.5v-11.6c0-0.8,0.1-1,0.3-1c0.3,0,0.7,0.4,0.9,0.6c0.4,0.3,3.8,3.6,7.5,6.9c2.4,2.1,4.9,4.5,5.6,5.2
		l-0.2-10.1c0-1.3-0.2-1.8-0.9-1.9c-0.4-0.1-1-0.1-1.2-0.1c-0.2,0-0.2-0.1-0.2-0.2c0-0.1,0.2-0.1,0.5-0.1c1.1,0,2.2,0,2.5,0
		c0.3,0,1.1,0,2,0c0.2,0,0.4,0,0.4,0.1c0,0.1-0.1,0.2-0.3,0.2c-0.1,0-0.3,0-0.6,0c-0.8,0.1-0.8,0.5-0.8,1.8l-0.1,11.8
		c0,1.3,0,1.4-0.2,1.4c-0.2,0-0.5-0.2-1.8-1.2c-0.2-0.2-3.7-3.2-6.2-5.5c-2.8-2.5-5.4-5-6.2-5.7L119,298.6z"/>
</g>
</svg>
